<svg width="494" height="158" viewBox="0 0 494 158" fill="none" xmlns="http://www.w3.org/2000/svg">
<rect x="203.103" y="41.7015" width="22.1453" height="20.7141" rx="2.63433" fill="#465FFF" stroke="#465FFF" stroke-width="0.752667"/>
<rect x="246.752" y="41.7015" width="22.1453" height="20.7141" rx="2.63433" fill="#465FFF" stroke="#465FFF" stroke-width="0.752667"/>
<rect x="258.201" y="98.2303" width="22.1453" height="20.7141" rx="2.63433" fill="#465FFF" stroke="#465FFF" stroke-width="0.752667"/>
<rect x="191.654" y="98.2303" width="22.1453" height="20.7141" rx="2.63433" fill="#465FFF" stroke="#465FFF" stroke-width="0.752667"/>
<rect x="207.396" y="82.847" width="57.5655" height="20.7141" rx="2.63433" fill="#465FFF" stroke="#465FFF" stroke-width="0.752667"/>
<rect x="152.769" y="15.167" width="166.462" height="130.311" rx="28" stroke="#465FFF" stroke-width="24"/>
<rect x="0.0405273" y="0.522461" width="32.6255" height="77.5957" rx="6.26271" fill="#465FFF"/>
<rect x="0.0405273" y="0.522461" width="32.6255" height="77.5957" rx="6.26271" stroke="#465FFF"/>
<rect x="75.8726" y="3.16748" width="32.6255" height="154.31" rx="6.26271" fill="#465FFF"/>
<rect x="75.8726" y="3.16748" width="32.6255" height="154.31" rx="6.26271" stroke="#465FFF"/>
<rect x="16.7939" y="91.3442" width="32.6255" height="77.5957" rx="6.26271" transform="rotate(-90 16.7939 91.3442)" fill="#465FFF"/>
<rect x="16.7939" y="91.3442" width="32.6255" height="77.5957" rx="6.26271" transform="rotate(-90 16.7939 91.3442)" stroke="#465FFF"/>
<rect x="460.859" y="11.188" width="32.6255" height="132.562" rx="6.26271" fill="#465FFF"/>
<rect x="460.859" y="11.188" width="32.6255" height="132.562" rx="6.26271" stroke="#465FFF"/>
<rect x="371.731" y="33.4458" width="32.6255" height="107.028" rx="6.26271" transform="rotate(-90 371.731 33.4458)" fill="#465FFF"/>
<rect x="371.731" y="33.4458" width="32.6255" height="107.028" rx="6.26271" transform="rotate(-90 371.731 33.4458)" stroke="#465FFF"/>
<rect x="371.731" y="155.18" width="30" height="107.028" rx="6.26271" transform="rotate(-90 371.731 155.18)" fill="#465FFF"/>
<rect x="371.731" y="155.18" width="30" height="107.028" rx="6.26271" transform="rotate(-90 371.731 155.18)" stroke="#465FFF"/>
<rect x="388.096" y="93.7812" width="32.6255" height="91.6638" rx="6.26271" transform="rotate(-90 388.096 93.7812)" fill="#465FFF"/>
<rect x="388.096" y="93.7812" width="32.6255" height="91.6638" rx="6.26271" transform="rotate(-90 388.096 93.7812)" stroke="#465FFF"/>
</svg>
